<svg width="78" height="87" viewBox="0 0 78 87" fill="none" xmlns="http://www.w3.org/2000/svg">
<g filter="url(#filter0_d_643_2868)">
<path fill-rule="evenodd" clip-rule="evenodd" d="M28.9419 19.5145C29.2505 18.8447 29.6119 18.3243 29.8507 18.05C29.8554 18.6971 29.7557 19.2775 29.6013 19.7819C30.0765 20.0112 30.5705 20.3322 31.0424 20.7752C30.6787 20.7642 30.0512 20.6761 29.3499 20.4476C29.0266 21.1605 28.618 21.6527 28.3501 21.8818C28.3682 21.2819 28.4945 20.7069 28.6718 20.1883C28.1708 19.9663 27.6631 19.6685 27.2105 19.2745C27.5606 19.2335 28.1993 19.2678 28.9419 19.5145Z" fill="url(#paint0_linear_643_2868)"/>
<path fill-rule="evenodd" clip-rule="evenodd" d="M26.5031 12.8043C26.7085 12.3585 26.949 12.0121 27.108 11.8295C27.1111 12.2602 27.0447 12.6466 26.942 12.9823C27.2584 13.1349 27.5871 13.3486 27.9013 13.6435C27.6592 13.6362 27.2415 13.5775 26.7746 13.4254C26.5595 13.9 26.2875 14.2276 26.1091 14.3801C26.1212 13.9808 26.2052 13.5981 26.3233 13.2528C25.9898 13.105 25.6519 12.9069 25.3507 12.6446C25.5837 12.6173 26.0088 12.6401 26.5031 12.8043Z" fill="url(#paint1_linear_643_2868)"/>
<path fill-rule="evenodd" clip-rule="evenodd" d="M19.9024 6.13381C20.2109 5.464 20.5723 4.94369 20.8112 4.66934C20.8159 5.3164 20.7161 5.89682 20.5617 6.40127C21.037 6.63051 21.5309 6.95152 22.0029 7.39451C21.6392 7.38351 21.0117 7.29542 20.3103 7.06696C19.9871 7.77984 19.5784 8.27205 19.3105 8.5012C19.3287 7.90126 19.4549 7.32628 19.6322 6.80762C19.1312 6.58559 18.6236 6.28785 18.171 5.89386C18.5211 5.85282 19.1597 5.8871 19.9024 6.13381Z" fill="url(#paint2_linear_643_2868)"/>
<path fill-rule="evenodd" clip-rule="evenodd" d="M18.8566 21.1521C19.3105 20.1665 19.8423 19.4009 20.1937 18.9972C20.2006 19.9494 20.0538 20.8035 19.8266 21.5457C20.5255 21.8829 21.2518 22.3551 21.9458 23.0065C21.411 22.9903 20.4882 22.8608 19.4567 22.5249C18.9812 23.5736 18.38 24.2977 17.9859 24.6348C18.0126 23.7523 18.1983 22.9065 18.4591 22.1435C17.7217 21.8168 16.9744 21.3786 16.3083 20.7987C16.8235 20.7383 17.7635 20.7888 18.8566 21.1521Z" fill="url(#paint3_linear_643_2868)"/>
<circle cx="21.5869" cy="14.4071" r="0.397721" transform="rotate(21.3865 21.5869 14.4071)" fill="#2F235A"/>
<circle cx="31.4347" cy="9.40626" r="0.397721" transform="rotate(21.3865 31.4347 9.40626)" fill="#FE9076"/>
<circle cx="12.5311" cy="11.5788" r="0.397721" transform="rotate(21.3865 12.5311 11.5788)" fill="#FFA400"/>
<circle cx="21.0716" cy="27.593" r="0.397721" transform="rotate(21.3865 21.0716 27.593)" fill="#23BB86"/>
<path d="M31.133 7.5053C30.746 6.02747 29.3494 2.64762 26.8584 0.95083" stroke="#FE9076" stroke-width="0.346178" stroke-linecap="round"/>
<path d="M11.3575 9.97437C10.3947 8.78833 7.72668 6.28716 4.75725 5.7708" stroke="#FFA400" stroke-width="0.346178" stroke-linecap="round"/>
<path d="M19.3795 28.171C18.5263 28.4822 16.3784 29.4737 14.6126 30.9505" stroke="#23BB86" stroke-width="0.346178" stroke-linecap="round"/>
<path fill-rule="evenodd" clip-rule="evenodd" d="M48.6512 19.5145C48.3427 18.8447 47.9813 18.3244 47.7424 18.05C47.7378 18.6971 47.8375 19.2775 47.9919 19.782C47.5166 20.0112 47.0227 20.3322 46.5508 20.7752C46.9144 20.7642 47.5419 20.6761 48.2433 20.4477C48.5665 21.1605 48.9752 21.6527 49.2431 21.8819C49.2249 21.282 49.0987 20.707 48.9214 20.1883C49.4224 19.9663 49.93 19.6685 50.3826 19.2746C50.0325 19.2335 49.3939 19.2678 48.6512 19.5145Z" fill="url(#paint4_linear_643_2868)"/>
<path fill-rule="evenodd" clip-rule="evenodd" d="M51.0901 12.8041C50.8848 12.3583 50.6442 12.0119 50.4852 11.8293C50.4821 12.26 50.5485 12.6464 50.6513 12.9821C50.3349 13.1347 50.0061 13.3484 49.6919 13.6433C49.934 13.636 50.3517 13.5773 50.8186 13.4252C51.0338 13.8998 51.3058 14.2274 51.4841 14.3799C51.472 13.9806 51.388 13.5978 51.2699 13.2526C51.6034 13.1048 51.9413 12.9067 52.2425 12.6444C52.0095 12.6171 51.5844 12.6399 51.0901 12.8041Z" fill="url(#paint5_linear_643_2868)"/>
<path fill-rule="evenodd" clip-rule="evenodd" d="M57.6917 6.13365C57.3832 5.46385 57.0218 4.94354 56.7829 4.66919C56.7783 5.31625 56.878 5.89667 57.0324 6.40112C56.5571 6.63035 56.0632 6.95137 55.5913 7.39436C55.9549 7.38336 56.5824 7.29527 57.2838 7.0668C57.607 7.77968 58.0157 8.2719 58.2836 8.50104C58.2654 7.9011 58.1392 7.32613 57.9619 6.80747C58.4629 6.58544 58.9705 6.2877 59.4231 5.89371C59.073 5.85267 58.4344 5.88695 57.6917 6.13365Z" fill="url(#paint6_linear_643_2868)"/>
<path fill-rule="evenodd" clip-rule="evenodd" d="M58.7375 21.152C58.2835 20.1664 57.7517 19.4008 57.4003 18.9972C57.3934 19.9493 57.5402 20.8034 57.7674 21.5456C57.0685 21.8829 56.3422 22.355 55.6482 23.0065C56.183 22.9903 57.1058 22.8608 58.1373 22.5249C58.6129 23.5736 59.214 24.2976 59.6081 24.6347C59.5814 23.7522 59.3957 22.9064 59.1349 22.1435C59.8723 21.8167 60.6196 21.3786 61.2857 20.7987C60.7705 20.7383 59.8305 20.7887 58.7375 21.152Z" fill="url(#paint7_linear_643_2868)"/>
<circle r="0.397721" transform="matrix(-0.931142 0.364658 0.364658 0.931142 56.0063 14.407)" fill="#2F235A"/>
<circle r="0.397721" transform="matrix(-0.931142 0.364658 0.364658 0.931142 46.1585 9.40621)" fill="#FE9076"/>
<circle r="0.397721" transform="matrix(-0.931142 0.364658 0.364658 0.931142 65.0622 11.5788)" fill="#FFA400"/>
<circle r="0.397721" transform="matrix(-0.931142 0.364658 0.364658 0.931142 56.5217 27.593)" fill="#23BB86"/>
<path d="M46.4608 7.50526C46.8477 6.02743 48.2443 2.64757 50.7353 0.950784" stroke="#FE9076" stroke-width="0.346178" stroke-linecap="round"/>
<path d="M66.2358 9.97433C67.1986 8.78829 69.8666 6.28711 72.836 5.77075" stroke="#FFA400" stroke-width="0.346178" stroke-linecap="round"/>
<path d="M58.2141 28.1709C59.0674 28.4821 61.2153 29.4737 62.9811 30.9505" stroke="#23BB86" stroke-width="0.346178" stroke-linecap="round"/>
<rect x="17.4369" y="49.467" width="42.2141" height="29.181" fill="url(#paint8_linear_643_2868)"/>
<mask id="mask0_643_2868" style="mask-type:alpha" maskUnits="userSpaceOnUse" x="17" y="49" width="43" height="30">
<rect x="17.4369" y="49.467" width="42.2141" height="29.181" fill="#C4C4C4"/>
</mask>
<g mask="url(#mask0_643_2868)">
<path d="M19.4338 48.724L48.1787 48.724L41.6816 60.0051L12.9368 60.0051L19.4338 48.724Z" fill="black" fill-opacity="0.07"/>
<rect x="46.1436" y="49.467" width="42.2141" height="29.181" fill="url(#paint9_linear_643_2868)"/>
</g>
<path d="M17.3993 49.467L46.1442 49.467L40.5916 58.7331L11.8467 58.7331L17.3993 49.467Z" fill="url(#paint10_linear_643_2868)"/>
<mask id="mask1_643_2868" style="mask-type:alpha" maskUnits="userSpaceOnUse" x="46" y="49" width="14" height="30">
<rect x="46.1442" y="49.467" width="13.5065" height="29.181" fill="#C4C4C4"/>
</mask>
<g mask="url(#mask1_643_2868)">
<path d="M58.0062 49.4185L44.4786 49.4185L50.8349 60.0867L64.3626 60.0867L58.0062 49.4185Z" fill="black" fill-opacity="0.07"/>
</g>
<path d="M59.6718 49.467L46.1441 49.467L51.6968 58.7331L65.2244 58.7331L59.6718 49.467Z" fill="url(#paint11_linear_643_2868)"/>
<circle cx="32.401" cy="41.3868" r="3.98921" fill="url(#paint12_linear_643_2868)"/>
<circle cx="44.8043" cy="36.0544" r="3.85479" fill="url(#paint13_linear_643_2868)"/>
<circle cx="36.3904" cy="26.2322" r="3.10851" fill="url(#paint14_linear_643_2868)"/>
<circle cx="46.9191" cy="25.7631" r="0.775212" fill="#FFA800" fill-opacity="0.23"/>
<circle cx="41.7248" cy="43.3832" r="0.775212" fill="#FFA800" fill-opacity="0.23"/>
<circle cx="28.9954" cy="31.4243" r="0.775212" fill="#FFA800" fill-opacity="0.23"/>
<path d="M59.7502 49.605H17.403L10.8995 9.50639H67.5595L59.7502 49.605Z" fill="url(#paint15_linear_643_2868)"/>
</g>
<defs>
<filter id="filter0_d_643_2868" x="0.584137" y="0.777679" width="76.425" height="85.8703" filterUnits="userSpaceOnUse" color-interpolation-filters="sRGB">
<feFlood flood-opacity="0" result="BackgroundImageFix"/>
<feColorMatrix in="SourceAlpha" type="matrix" values="0 0 0 0 0 0 0 0 0 0 0 0 0 0 0 0 0 0 127 0" result="hardAlpha"/>
<feOffset dy="4"/>
<feGaussianBlur stdDeviation="2"/>
<feComposite in2="hardAlpha" operator="out"/>
<feColorMatrix type="matrix" values="0 0 0 0 0 0 0 0 0 0 0 0 0 0 0 0 0 0 0.25 0"/>
<feBlend mode="normal" in2="BackgroundImageFix" result="effect1_dropShadow_643_2868"/>
<feBlend mode="normal" in="SourceGraphic" in2="effect1_dropShadow_643_2868" result="shape"/>
</filter>
<linearGradient id="paint0_linear_643_2868" x1="29.7336" y1="18.4745" x2="28.3246" y2="22.0724" gradientUnits="userSpaceOnUse">
<stop stop-color="#FFE89E"/>
<stop offset="1" stop-color="#FFBF1A"/>
</linearGradient>
<linearGradient id="paint1_linear_643_2868" x1="27.0301" y1="12.1121" x2="26.0922" y2="14.507" gradientUnits="userSpaceOnUse">
<stop stop-color="#FFE89E"/>
<stop offset="1" stop-color="#FFBF1A"/>
</linearGradient>
<linearGradient id="paint2_linear_643_2868" x1="20.6941" y1="5.09388" x2="19.2851" y2="8.69175" gradientUnits="userSpaceOnUse">
<stop stop-color="#FFE89E"/>
<stop offset="1" stop-color="#FFBF1A"/>
</linearGradient>
<linearGradient id="paint3_linear_643_2868" x1="20.0204" y1="19.6214" x2="17.9474" y2="24.9147" gradientUnits="userSpaceOnUse">
<stop stop-color="#FFE89E"/>
<stop offset="1" stop-color="#FFBF1A"/>
</linearGradient>
<linearGradient id="paint4_linear_643_2868" x1="47.8596" y1="18.4746" x2="49.2686" y2="22.0724" gradientUnits="userSpaceOnUse">
<stop stop-color="#FFE89E"/>
<stop offset="1" stop-color="#FFBF1A"/>
</linearGradient>
<linearGradient id="paint5_linear_643_2868" x1="50.5631" y1="12.1119" x2="51.501" y2="14.5068" gradientUnits="userSpaceOnUse">
<stop stop-color="#FFE89E"/>
<stop offset="1" stop-color="#FFBF1A"/>
</linearGradient>
<linearGradient id="paint6_linear_643_2868" x1="56.9001" y1="5.09373" x2="58.3091" y2="8.6916" gradientUnits="userSpaceOnUse">
<stop stop-color="#FFE89E"/>
<stop offset="1" stop-color="#FFBF1A"/>
</linearGradient>
<linearGradient id="paint7_linear_643_2868" x1="57.5736" y1="19.6214" x2="59.6466" y2="24.9147" gradientUnits="userSpaceOnUse">
<stop stop-color="#FFE89E"/>
<stop offset="1" stop-color="#FFBF1A"/>
</linearGradient>
<linearGradient id="paint8_linear_643_2868" x1="31.5383" y1="44.0644" x2="14.7137" y2="90.4041" gradientUnits="userSpaceOnUse">
<stop stop-color="#FFD481"/>
<stop offset="1" stop-color="#FA620C"/>
</linearGradient>
<linearGradient id="paint9_linear_643_2868" x1="24.6387" y1="47.6161" x2="75.6994" y2="102.181" gradientUnits="userSpaceOnUse">
<stop stop-color="#FFD481"/>
<stop offset="0.83311" stop-color="#FA620C"/>
</linearGradient>
<linearGradient id="paint10_linear_643_2868" x1="17.9909" y1="46.1552" x2="16.6248" y2="65.8985" gradientUnits="userSpaceOnUse">
<stop stop-color="#FFD481"/>
<stop offset="1" stop-color="#FA620C"/>
</linearGradient>
<linearGradient id="paint11_linear_643_2868" x1="61.8063" y1="46.1552" x2="64.2361" y2="65.6908" gradientUnits="userSpaceOnUse">
<stop stop-color="#FFD481"/>
<stop offset="1" stop-color="#FA620C"/>
</linearGradient>
<linearGradient id="paint12_linear_643_2868" x1="32.7031" y1="36.081" x2="31.9443" y2="46.8489" gradientUnits="userSpaceOnUse">
<stop stop-color="#FF9F81"/>
<stop offset="1" stop-color="#F53838"/>
</linearGradient>
<linearGradient id="paint13_linear_643_2868" x1="45.0962" y1="30.9274" x2="44.363" y2="41.3324" gradientUnits="userSpaceOnUse">
<stop stop-color="#FF9F81"/>
<stop offset="1" stop-color="#F53838"/>
</linearGradient>
<linearGradient id="paint14_linear_643_2868" x1="36.6258" y1="22.0978" x2="36.0345" y2="30.4884" gradientUnits="userSpaceOnUse">
<stop stop-color="#FF9F81"/>
<stop offset="1" stop-color="#F53838"/>
</linearGradient>
<linearGradient id="paint15_linear_643_2868" x1="38.7639" y1="9.50639" x2="38.7639" y2="94.697" gradientUnits="userSpaceOnUse">
<stop stop-color="white" stop-opacity="0"/>
<stop offset="1" stop-color="#FE9277"/>
</linearGradient>
</defs>
</svg>
