<svg width="10" height="11" viewBox="0 0 10 11" fill="none" xmlns="http://www.w3.org/2000/svg">
<path d="M4.74098 0.847687C2.15036 0.847687 0.0427246 2.95532 0.0427246 5.54594C0.0427246 8.13656 2.15036 10.2442 4.74098 10.2442C7.3316 10.2442 9.43924 8.13656 9.43924 5.54594C9.43924 2.95532 7.3316 0.847687 4.74098 0.847687ZM3.8018 7.61928L2.38972 6.21024C2.20613 6.02705 2.20576 5.72974 2.38889 5.54609V5.54609C2.57213 5.36233 2.86967 5.36199 3.05333 5.54533L3.80086 6.29156L5.95595 4.13647C6.1394 3.95302 6.43683 3.95302 6.62028 4.13647V4.13647C6.80374 4.31992 6.80374 4.61735 6.62028 4.8008L3.8018 7.61928Z" fill="#2FAB73"/>
</svg>
