<svg width="12" height="13" viewBox="0 0 12 13" fill="none" xmlns="http://www.w3.org/2000/svg">
<path d="M5.1517 8.78799C5.09002 8.78812 5.02893 8.77606 4.97193 8.75252C4.91493 8.72898 4.86314 8.69441 4.81953 8.6508L2.82653 6.65733C2.78163 6.61402 2.7458 6.56221 2.72113 6.5049C2.69647 6.4476 2.68347 6.38596 2.68288 6.32358C2.6823 6.2612 2.69414 6.19932 2.71772 6.14157C2.7413 6.08381 2.77615 6.03133 2.82024 5.98718C2.86432 5.94304 2.91675 5.90812 2.97447 5.88445C3.03219 5.86079 3.09405 5.84886 3.15643 5.84936C3.21882 5.84985 3.28048 5.86277 3.33781 5.88735C3.39515 5.91193 3.44702 5.94769 3.49039 5.99253L5.15123 7.65336L8.14167 4.66386C8.22976 4.5757 8.34927 4.52615 8.4739 4.52611C8.59853 4.52606 8.71808 4.57553 8.80623 4.66363C8.89439 4.75172 8.94394 4.87123 8.94399 4.99586C8.94403 5.12049 8.89456 5.24004 8.80647 5.3282L5.48386 8.6508C5.44025 8.69441 5.38846 8.72898 5.33146 8.75252C5.27446 8.77606 5.21337 8.78812 5.1517 8.78799Z" fill="#2FAB73"/>
</svg>
