<svg width="7" height="7" viewBox="0 0 7 7" fill="none" xmlns="http://www.w3.org/2000/svg">
<path d="M6.51484 2.96548L4.65095 2.6946L3.81774 1.00543C3.79499 0.95918 3.75755 0.921741 3.7113 0.898984C3.59531 0.841724 3.45436 0.889441 3.39637 1.00543L2.56316 2.6946L0.699277 2.96548C0.64789 2.97282 0.600907 2.99705 0.564936 3.03375C0.521449 3.07845 0.497486 3.13858 0.498312 3.20094C0.499138 3.2633 0.524685 3.32277 0.569341 3.3663L1.91789 4.68108L1.59929 6.53763C1.59182 6.58081 1.59659 6.62523 1.61308 6.66584C1.62957 6.70645 1.65711 6.74163 1.69257 6.76738C1.72803 6.79314 1.77 6.80844 1.81372 6.81156C1.85744 6.81468 1.90115 6.80548 1.93991 6.78502L3.60706 5.9085L5.2742 6.78502C5.31972 6.80924 5.37257 6.81732 5.42323 6.80851C5.55096 6.78649 5.63685 6.66536 5.61483 6.53763L5.29623 4.68108L6.64477 3.3663C6.68148 3.33033 6.7057 3.28335 6.71305 3.23196C6.73287 3.10349 6.64331 2.98457 6.51484 2.96548V2.96548Z" fill="#FEA250"/>
</svg>
